<?xml version="1.0" encoding="UTF-8" standalone="no"?>
<!-- Created with Inkscape (http://www.inkscape.org/) -->

<svg
   xmlns:dc="http://purl.org/dc/elements/1.1/"
   xmlns:cc="http://creativecommons.org/ns#"
   xmlns:rdf="http://www.w3.org/1999/02/22-rdf-syntax-ns#"
   xmlns:svg="http://www.w3.org/2000/svg"
   xmlns="http://www.w3.org/2000/svg"
   xmlns:sodipodi="http://sodipodi.sourceforge.net/DTD/sodipodi-0.dtd"
   xmlns:inkscape="http://www.inkscape.org/namespaces/inkscape"
   width="113.08634"
   height="352.65625"
   id="svg3302"
   version="1.1"
   inkscape:version="0.48.4 r9939"
   sodipodi:docname="New document 6">
  <defs
     id="defs3304">
    <clipPath
       clipPathUnits="userSpaceOnUse"
       id="clipPath116">
      <path
         d="m 59.04,73.44 245.97,0 0,280.77 -245.97,0 0,-280.77 z"
         id="path118"
         inkscape:connector-curvature="0" />
    </clipPath>
    <clipPath
       clipPathUnits="userSpaceOnUse"
       id="clipPath28">
      <path
         d="m 59.04,73.44 245.97,0 0,280.77 -245.97,0 0,-280.77 z"
         id="path30"
         inkscape:connector-curvature="0" />
    </clipPath>
  </defs>
  <sodipodi:namedview
     id="base"
     pagecolor="#ffffff"
     bordercolor="#666666"
     borderopacity="1.0"
     inkscape:pageopacity="0.0"
     inkscape:pageshadow="2"
     inkscape:zoom="0.98994949"
     inkscape:cx="466.66865"
     inkscape:cy="59.131217"
     inkscape:document-units="px"
     inkscape:current-layer="layer1"
     showgrid="false"
     fit-margin-top="10"
     fit-margin-left="10"
     fit-margin-right="10"
     fit-margin-bottom="10"
     inkscape:window-width="1920"
     inkscape:window-height="1021"
     inkscape:window-x="0"
     inkscape:window-y="27"
     inkscape:window-maximized="1" />
  <metadata
     id="metadata3307">
    <rdf:RDF>
      <cc:Work
         rdf:about="">
        <dc:format>image/svg+xml</dc:format>
        <dc:type
           rdf:resource="http://purl.org/dc/dcmitype/StillImage" />
        <dc:title></dc:title>
      </cc:Work>
    </rdf:RDF>
  </metadata>
  <g
     inkscape:label="Layer 1"
     inkscape:groupmode="layer"
     id="layer1"
     transform="translate(-497.73062,-173.19254)">
    <g
       transform="matrix(1.25,0,0,-1.25,326.75446,616.78629)"
       id="g112">
      <g
         id="g114"
         clip-path="url(#clipPath116)">
        <path
           d="m 145.16,278.82 c 0,1.48 1.22,2.7 2.7,2.7 1.49,0 2.7,-1.22 2.7,-2.7 0,-1.49 -1.21,-2.7 -2.7,-2.7 -1.48,0 -2.7,1.21 -2.7,2.7"
           style="fill:none;stroke:#000000;stroke-width:0.75;stroke-linecap:round;stroke-linejoin:round;stroke-miterlimit:10;stroke-opacity:1;stroke-dasharray:none"
           id="path120"
           inkscape:connector-curvature="0" />
        <path
           d="m 152.75,286.04 c 0,1.48 1.22,2.7 2.7,2.7 1.49,0 2.7,-1.22 2.7,-2.7 0,-1.49 -1.21,-2.7 -2.7,-2.7 -1.48,0 -2.7,1.21 -2.7,2.7"
           style="fill:none;stroke:#000000;stroke-width:0.75;stroke-linecap:round;stroke-linejoin:round;stroke-miterlimit:10;stroke-opacity:1;stroke-dasharray:none"
           id="path122"
           inkscape:connector-curvature="0" />
        <path
           d="m 160.35,293.26 c 0,1.49 1.21,2.7 2.7,2.7 1.48,0 2.7,-1.21 2.7,-2.7 0,-1.48 -1.22,-2.7 -2.7,-2.7 -1.49,0 -2.7,1.22 -2.7,2.7"
           style="fill:none;stroke:#000000;stroke-width:0.75;stroke-linecap:round;stroke-linejoin:round;stroke-miterlimit:10;stroke-opacity:1;stroke-dasharray:none"
           id="path124"
           inkscape:connector-curvature="0" />
        <path
           d="m 167.94,300.48 c 0,1.49 1.21,2.7 2.7,2.7 1.48,0 2.7,-1.21 2.7,-2.7 0,-1.48 -1.22,-2.7 -2.7,-2.7 -1.49,0 -2.7,1.22 -2.7,2.7"
           style="fill:none;stroke:#000000;stroke-width:0.75;stroke-linecap:round;stroke-linejoin:round;stroke-miterlimit:10;stroke-opacity:1;stroke-dasharray:none"
           id="path126"
           inkscape:connector-curvature="0" />
        <path
           d="m 175.53,307.7 c 0,1.49 1.21,2.7 2.7,2.7 1.48,0 2.7,-1.21 2.7,-2.7 0,-1.48 -1.22,-2.7 -2.7,-2.7 -1.49,0 -2.7,1.22 -2.7,2.7"
           style="fill:none;stroke:#000000;stroke-width:0.75;stroke-linecap:round;stroke-linejoin:round;stroke-miterlimit:10;stroke-opacity:1;stroke-dasharray:none"
           id="path128"
           inkscape:connector-curvature="0" />
        <path
           d="m 183.12,314.93 c 0,1.48 1.22,2.7 2.7,2.7 1.49,0 2.7,-1.22 2.7,-2.7 0,-1.49 -1.21,-2.7 -2.7,-2.7 -1.48,0 -2.7,1.21 -2.7,2.7"
           style="fill:none;stroke:#000000;stroke-width:0.75;stroke-linecap:round;stroke-linejoin:round;stroke-miterlimit:10;stroke-opacity:1;stroke-dasharray:none"
           id="path130"
           inkscape:connector-curvature="0" />
        <path
           d="m 190.71,322.15 c 0,1.48 1.22,2.7 2.7,2.7 1.49,0 2.7,-1.22 2.7,-2.7 0,-1.49 -1.21,-2.7 -2.7,-2.7 -1.48,0 -2.7,1.21 -2.7,2.7"
           style="fill:none;stroke:#000000;stroke-width:0.75;stroke-linecap:round;stroke-linejoin:round;stroke-miterlimit:10;stroke-opacity:1;stroke-dasharray:none"
           id="path132"
           inkscape:connector-curvature="0" />
        <path
           d="m 198.3,329.37 c 0,1.48 1.22,2.7 2.7,2.7 1.49,0 2.7,-1.22 2.7,-2.7 0,-1.49 -1.21,-2.7 -2.7,-2.7 -1.48,0 -2.7,1.21 -2.7,2.7"
           style="fill:none;stroke:#000000;stroke-width:0.75;stroke-linecap:round;stroke-linejoin:round;stroke-miterlimit:10;stroke-opacity:1;stroke-dasharray:none"
           id="path134"
           inkscape:connector-curvature="0" />
        <path
           d="m 205.9,336.59 c 0,1.48 1.21,2.7 2.7,2.7 1.48,0 2.7,-1.22 2.7,-2.7 0,-1.49 -1.22,-2.7 -2.7,-2.7 -1.49,0 -2.7,1.21 -2.7,2.7"
           style="fill:none;stroke:#000000;stroke-width:0.75;stroke-linecap:round;stroke-linejoin:round;stroke-miterlimit:10;stroke-opacity:1;stroke-dasharray:none"
           id="path136"
           inkscape:connector-curvature="0" />
        <path
           d="m 213.49,343.81 c 0,1.49 1.21,2.7 2.7,2.7 1.48,0 2.7,-1.21 2.7,-2.7 0,-1.48 -1.22,-2.7 -2.7,-2.7 -1.49,0 -2.7,1.22 -2.7,2.7"
           style="fill:none;stroke:#000000;stroke-width:0.75;stroke-linecap:round;stroke-linejoin:round;stroke-miterlimit:10;stroke-opacity:1;stroke-dasharray:none"
           id="path138"
           inkscape:connector-curvature="0" />
        <path
           d="m 213.49,330.81 c 0,1.49 1.21,2.7 2.7,2.7 1.48,0 2.7,-1.21 2.7,-2.7 0,-1.48 -1.22,-2.7 -2.7,-2.7 -1.49,0 -2.7,1.22 -2.7,2.7"
           style="fill:none;stroke:#000000;stroke-width:0.75;stroke-linecap:round;stroke-linejoin:round;stroke-miterlimit:10;stroke-opacity:1;stroke-dasharray:none"
           id="path140"
           inkscape:connector-curvature="0" />
        <path
           d="m 213.49,317.81 c 0,1.49 1.21,2.7 2.7,2.7 1.48,0 2.7,-1.21 2.7,-2.7 0,-1.48 -1.22,-2.7 -2.7,-2.7 -1.49,0 -2.7,1.22 -2.7,2.7"
           style="fill:none;stroke:#000000;stroke-width:0.75;stroke-linecap:round;stroke-linejoin:round;stroke-miterlimit:10;stroke-opacity:1;stroke-dasharray:none"
           id="path142"
           inkscape:connector-curvature="0" />
        <path
           d="m 213.49,304.82 c 0,1.48 1.21,2.7 2.7,2.7 1.48,0 2.7,-1.22 2.7,-2.7 0,-1.49 -1.22,-2.7 -2.7,-2.7 -1.49,0 -2.7,1.21 -2.7,2.7"
           style="fill:none;stroke:#000000;stroke-width:0.75;stroke-linecap:round;stroke-linejoin:round;stroke-miterlimit:10;stroke-opacity:1;stroke-dasharray:none"
           id="path144"
           inkscape:connector-curvature="0" />
        <path
           d="m 213.49,291.82 c 0,1.48 1.21,2.7 2.7,2.7 1.48,0 2.7,-1.22 2.7,-2.7 0,-1.49 -1.22,-2.7 -2.7,-2.7 -1.49,0 -2.7,1.21 -2.7,2.7"
           style="fill:none;stroke:#000000;stroke-width:0.75;stroke-linecap:round;stroke-linejoin:round;stroke-miterlimit:10;stroke-opacity:1;stroke-dasharray:none"
           id="path146"
           inkscape:connector-curvature="0" />
        <path
           d="m 213.49,278.82 c 0,1.48 1.21,2.7 2.7,2.7 1.48,0 2.7,-1.22 2.7,-2.7 0,-1.49 -1.22,-2.7 -2.7,-2.7 -1.49,0 -2.7,1.21 -2.7,2.7"
           style="fill:none;stroke:#000000;stroke-width:0.75;stroke-linecap:round;stroke-linejoin:round;stroke-miterlimit:10;stroke-opacity:1;stroke-dasharray:none"
           id="path148"
           inkscape:connector-curvature="0" />
        <path
           d="m 213.49,265.82 c 0,1.48 1.21,2.7 2.7,2.7 1.48,0 2.7,-1.22 2.7,-2.7 0,-1.49 -1.22,-2.7 -2.7,-2.7 -1.49,0 -2.7,1.21 -2.7,2.7"
           style="fill:none;stroke:#000000;stroke-width:0.75;stroke-linecap:round;stroke-linejoin:round;stroke-miterlimit:10;stroke-opacity:1;stroke-dasharray:none"
           id="path150"
           inkscape:connector-curvature="0" />
        <path
           d="m 213.49,252.82 c 0,1.49 1.21,2.7 2.7,2.7 1.48,0 2.7,-1.21 2.7,-2.7 0,-1.48 -1.22,-2.7 -2.7,-2.7 -1.49,0 -2.7,1.22 -2.7,2.7"
           style="fill:none;stroke:#000000;stroke-width:0.75;stroke-linecap:round;stroke-linejoin:round;stroke-miterlimit:10;stroke-opacity:1;stroke-dasharray:none"
           id="path152"
           inkscape:connector-curvature="0" />
        <path
           d="m 213.49,239.82 c 0,1.49 1.21,2.7 2.7,2.7 1.48,0 2.7,-1.21 2.7,-2.7 0,-1.48 -1.22,-2.7 -2.7,-2.7 -1.49,0 -2.7,1.22 -2.7,2.7"
           style="fill:none;stroke:#000000;stroke-width:0.75;stroke-linecap:round;stroke-linejoin:round;stroke-miterlimit:10;stroke-opacity:1;stroke-dasharray:none"
           id="path154"
           inkscape:connector-curvature="0" />
        <path
           d="m 213.49,226.82 c 0,1.49 1.21,2.7 2.7,2.7 1.48,0 2.7,-1.21 2.7,-2.7 0,-1.48 -1.22,-2.7 -2.7,-2.7 -1.49,0 -2.7,1.22 -2.7,2.7"
           style="fill:none;stroke:#000000;stroke-width:0.75;stroke-linecap:round;stroke-linejoin:round;stroke-miterlimit:10;stroke-opacity:1;stroke-dasharray:none"
           id="path156"
           inkscape:connector-curvature="0" />
        <path
           d="m 213.49,213.82 c 0,1.49 1.21,2.7 2.7,2.7 1.48,0 2.7,-1.21 2.7,-2.7 0,-1.48 -1.22,-2.7 -2.7,-2.7 -1.49,0 -2.7,1.22 -2.7,2.7"
           style="fill:none;stroke:#000000;stroke-width:0.75;stroke-linecap:round;stroke-linejoin:round;stroke-miterlimit:10;stroke-opacity:1;stroke-dasharray:none"
           id="path158"
           inkscape:connector-curvature="0" />
        <path
           d="m 213.49,200.83 c 0,1.48 1.21,2.7 2.7,2.7 1.48,0 2.7,-1.22 2.7,-2.7 0,-1.49 -1.22,-2.7 -2.7,-2.7 -1.49,0 -2.7,1.21 -2.7,2.7"
           style="fill:none;stroke:#000000;stroke-width:0.75;stroke-linecap:round;stroke-linejoin:round;stroke-miterlimit:10;stroke-opacity:1;stroke-dasharray:none"
           id="path160"
           inkscape:connector-curvature="0" />
        <path
           d="m 213.49,187.83 c 0,1.48 1.21,2.7 2.7,2.7 1.48,0 2.7,-1.22 2.7,-2.7 0,-1.49 -1.22,-2.7 -2.7,-2.7 -1.49,0 -2.7,1.21 -2.7,2.7"
           style="fill:none;stroke:#000000;stroke-width:0.75;stroke-linecap:round;stroke-linejoin:round;stroke-miterlimit:10;stroke-opacity:1;stroke-dasharray:none"
           id="path162"
           inkscape:connector-curvature="0" />
        <path
           d="m 213.49,174.83 c 0,1.48 1.21,2.7 2.7,2.7 1.48,0 2.7,-1.22 2.7,-2.7 0,-1.49 -1.22,-2.7 -2.7,-2.7 -1.49,0 -2.7,1.21 -2.7,2.7"
           style="fill:none;stroke:#000000;stroke-width:0.75;stroke-linecap:round;stroke-linejoin:round;stroke-miterlimit:10;stroke-opacity:1;stroke-dasharray:none"
           id="path164"
           inkscape:connector-curvature="0" />
        <path
           d="m 213.49,161.83 c 0,1.49 1.21,2.7 2.7,2.7 1.48,0 2.7,-1.21 2.7,-2.7 0,-1.48 -1.22,-2.7 -2.7,-2.7 -1.49,0 -2.7,1.22 -2.7,2.7"
           style="fill:none;stroke:#000000;stroke-width:0.75;stroke-linecap:round;stroke-linejoin:round;stroke-miterlimit:10;stroke-opacity:1;stroke-dasharray:none"
           id="path166"
           inkscape:connector-curvature="0" />
        <path
           d="m 213.49,148.83 c 0,1.49 1.21,2.7 2.7,2.7 1.48,0 2.7,-1.21 2.7,-2.7 0,-1.48 -1.22,-2.7 -2.7,-2.7 -1.49,0 -2.7,1.22 -2.7,2.7"
           style="fill:none;stroke:#000000;stroke-width:0.75;stroke-linecap:round;stroke-linejoin:round;stroke-miterlimit:10;stroke-opacity:1;stroke-dasharray:none"
           id="path168"
           inkscape:connector-curvature="0" />
        <path
           d="m 213.49,135.83 c 0,1.49 1.21,2.7 2.7,2.7 1.48,0 2.7,-1.21 2.7,-2.7 0,-1.48 -1.22,-2.7 -2.7,-2.7 -1.49,0 -2.7,1.22 -2.7,2.7"
           style="fill:none;stroke:#000000;stroke-width:0.75;stroke-linecap:round;stroke-linejoin:round;stroke-miterlimit:10;stroke-opacity:1;stroke-dasharray:none"
           id="path170"
           inkscape:connector-curvature="0" />
        <path
           d="m 213.49,122.83 c 0,1.49 1.21,2.7 2.7,2.7 1.48,0 2.7,-1.21 2.7,-2.7 0,-1.48 -1.22,-2.7 -2.7,-2.7 -1.49,0 -2.7,1.22 -2.7,2.7"
           style="fill:none;stroke:#000000;stroke-width:0.75;stroke-linecap:round;stroke-linejoin:round;stroke-miterlimit:10;stroke-opacity:1;stroke-dasharray:none"
           id="path172"
           inkscape:connector-curvature="0" />
        <path
           d="m 213.49,109.84 c 0,1.48 1.21,2.7 2.7,2.7 1.48,0 2.7,-1.22 2.7,-2.7 0,-1.49 -1.22,-2.7 -2.7,-2.7 -1.49,0 -2.7,1.21 -2.7,2.7"
           style="fill:none;stroke:#000000;stroke-width:0.75;stroke-linecap:round;stroke-linejoin:round;stroke-miterlimit:10;stroke-opacity:1;stroke-dasharray:none"
           id="path174"
           inkscape:connector-curvature="0" />
        <path
           d="m 213.49,96.84 c 0,1.48 1.21,2.7 2.7,2.7 1.48,0 2.7,-1.22 2.7,-2.7 0,-1.49 -1.22,-2.7 -2.7,-2.7 -1.49,0 -2.7,1.21 -2.7,2.7"
           style="fill:none;stroke:#000000;stroke-width:0.75;stroke-linecap:round;stroke-linejoin:round;stroke-miterlimit:10;stroke-opacity:1;stroke-dasharray:none"
           id="path176"
           inkscape:connector-curvature="0" />
        <path
           d="m 213.49,83.84 c 0,1.48 1.21,2.7 2.7,2.7 1.48,0 2.7,-1.22 2.7,-2.7 0,-1.49 -1.22,-2.7 -2.7,-2.7 -1.49,0 -2.7,1.21 -2.7,2.7"
           style="fill:none;stroke:#000000;stroke-width:0.75;stroke-linecap:round;stroke-linejoin:round;stroke-miterlimit:10;stroke-opacity:1;stroke-dasharray:none"
           id="path178"
           inkscape:connector-curvature="0" />
      </g>
    </g>
    <g
       transform="matrix(1.25,0,0,-1.25,326.40273,617.07777)"
       id="g24">
      <g
         id="g26"
         clip-path="url(#clipPath28)">
        <path
           d="m 147.86,278.82 7.59,7.22 7.6,7.22 7.59,7.22 7.59,7.22 7.59,7.23 7.59,7.22 7.59,7.22 7.6,7.22 7.59,7.22 0,-13 0,-13 0,-12.99 0,-13 0,-13 0,-13 0,-13 0,-13 0,-13 0,-13 0,-12.99 0,-13 0,-13 0,-13 0,-13 0,-13 0,-13 0,-12.99 0,-13 0,-13"
           style="fill:none;stroke:#ff0000;stroke-width:0.75;stroke-linecap:round;stroke-linejoin:round;stroke-miterlimit:10;stroke-opacity:1;stroke-dasharray:none"
           id="path32"
           inkscape:connector-curvature="0" />
      </g>
    </g>
  </g>
</svg>
